<svg width="120" height="40" viewBox="0 0 120 40" fill="none" xmlns="http://www.w3.org/2000/svg">
<g clip-path="url(#clip0_41_548)">
<path d="M9.23409 18.4293C8.38693 24.4188 12.5804 29.9895 18.6376 30.8272C24.6948 31.6649 30.3285 27.5183 31.1757 21.5288C32.0228 15.5393 27.8294 9.96859 21.7721 9.13089C15.7149 8.29319 10.1236 12.4398 9.23409 18.4293ZM26.8128 15.0785C28.1259 16.8377 28.6765 18.9738 28.38 21.1518C28.0835 23.3298 26.9398 25.2147 25.1608 26.5131C23.3817 27.8115 21.2215 28.356 19.0188 28.0628C16.8162 27.7696 14.9101 26.6387 13.597 24.8796C12.2839 23.1204 11.7332 20.9843 12.0297 18.8063C12.3262 16.6283 13.4699 14.7435 15.249 13.445C17.028 12.1466 19.1883 11.6021 21.3909 11.8953C23.5935 12.2304 25.4997 13.3613 26.8128 15.0785ZM32.9547 29.6126H37.953C34.522 35.8115 27.8717 40 20.2049 40C9.06466 40 0 31.0366 0 19.9791C0 8.92147 9.06466 0 20.2049 0C27.8717 0 34.522 4.18848 37.953 10.3874H32.9547C32.5311 9.84293 32.0652 9.29843 31.5569 8.79581C28.5071 5.82199 24.4831 4.1466 20.2049 4.1466C19.1883 4.1466 18.1717 4.23037 17.1974 4.43979C16.0538 5.61257 15.1219 6.99476 14.4442 8.46073C12.0297 9.63351 10.0389 11.5183 8.72579 13.9058C8.76815 13.445 8.81051 12.9424 8.89523 12.4398C9.14938 10.8063 9.61532 9.13089 10.2083 7.62304C9.78475 8 9.31881 8.37696 8.89523 8.79581C5.88779 11.7696 4.19346 15.7487 4.19346 19.9791C4.19346 24.2094 5.88779 28.1885 8.89523 31.2042C11.9027 34.178 15.9267 35.8534 20.2049 35.8534C21.2215 35.8534 22.2381 35.7696 23.2123 35.5602C24.356 34.3874 25.2879 33.0052 25.9656 31.5393C28.38 30.3665 30.3708 28.4817 31.684 26.0942C31.6416 26.555 31.5992 27.0576 31.5145 27.5602C31.2604 29.2356 30.7521 30.911 30.1591 32.4188C30.625 32.0419 31.0909 31.623 31.5145 31.2042C32.0652 30.7016 32.5311 30.1571 32.9547 29.6126Z" fill="#7936FB"/>
<path d="M41.2377 14.0723C43.1878 14.0723 44.9259 14.9086 46.1129 16.2885L44.29 17.7939C43.5269 16.9576 42.4247 16.4558 41.2377 16.4558C39.0756 16.4558 37.4223 18.0448 37.4223 20.2193C37.4223 22.3937 39.118 23.9827 41.2377 23.9827C42.4671 23.9827 43.5693 23.4809 44.3324 22.6028L46.1553 24.1082C44.9683 25.4881 43.1878 26.3662 41.2377 26.3662C37.6342 26.3662 34.7515 23.7736 34.7515 20.2193C34.7515 16.6649 37.6342 14.0723 41.2377 14.0723Z" fill="black"/>
<path d="M46.6641 14.2822H49.2501V26.1999H46.6641V14.2822Z" fill="black"/>
<path d="M49.9707 15.4108C49.9707 14.5745 50.649 13.9473 51.4545 13.9473C52.26 13.9473 52.9382 14.5745 52.9382 15.4108C52.9382 16.2053 52.26 16.8326 51.4545 16.8326C50.649 16.8326 49.9707 16.2053 49.9707 15.4108ZM50.1827 17.5853H52.7687V26.1994H50.1827V17.5853Z" fill="black"/>
<path d="M58.0252 17.292C59.3394 17.292 60.5688 17.7102 61.6711 18.881L60.0601 20.47C59.509 19.8846 58.9579 19.5919 58.0676 19.5919C56.8382 19.5919 55.8208 20.5537 55.8208 21.85C55.8208 23.1463 56.7958 24.108 58.0676 24.108C58.9579 24.108 59.5514 23.7735 60.0601 23.2299L61.6711 24.8189C60.5688 26.0316 59.3394 26.4079 58.0252 26.4079C55.3544 26.4079 53.1924 24.4844 53.1924 21.85C53.1924 19.2155 55.3544 17.292 58.0252 17.292Z" fill="black"/>
<path d="M61.8833 14.2822H64.4693V20.8892L67.3521 17.5857H70.362L66.8857 21.4746L70.6587 26.1999H67.7336L65.19 23.0218L64.4693 23.7745V26.1999H61.8833V14.2822Z" fill="black"/>
<path d="M75.7034 14.2822H76.7633L81.8929 26.1999H80.4515L79.2221 23.2727H73.287L72.0576 26.1999H70.6162L75.7034 14.2822ZM78.6286 22.0182L76.2121 16.3312L73.7957 22.0182H78.6286Z" fill="black"/>
<path d="M83.3769 22.4355C83.9704 23.3973 84.9878 24.0245 86.4292 24.0245C87.7858 24.0245 88.2521 23.3973 88.2521 22.8537C88.2521 21.8083 86.8955 21.5574 85.1998 20.9301C83.4616 20.3029 82.2746 19.3829 82.2746 17.4594C82.2746 15.3268 84.2247 14.0723 86.4292 14.0723C88.4641 14.0723 89.7359 15.034 90.4566 16.0376L88.676 17.4594C88.2521 16.874 87.5314 16.414 86.4716 16.414C85.4965 16.414 84.8606 16.8321 84.8606 17.3758C84.8606 18.3793 85.8357 18.4212 87.7858 19.1739C89.9902 20.0102 90.8805 21.0138 90.8805 22.7282C90.8805 24.819 89.4391 26.3662 86.3868 26.3662C83.8008 26.3662 82.1898 25.1536 81.4268 23.7318L83.3769 22.4355Z" fill="black"/>
<path d="M91.474 17.5852H94.06V18.6725C94.4416 17.9198 95.4166 17.418 96.6036 17.418C98.7657 17.418 99.9527 18.7561 99.9527 21.0142V26.2412H97.3667V21.2651C97.3667 20.2615 96.8156 19.6342 95.7558 19.6342C94.7807 19.6342 94.0176 20.3451 94.0176 21.3487V26.1994H91.4316V17.5852H91.474Z" fill="black"/>
<path d="M104.743 17.418C106.1 17.418 107.117 17.9616 107.329 18.7143V17.5852H109.915V26.1994H107.329V25.0703C107.075 25.823 106.057 26.3666 104.743 26.3666C102.242 26.3666 100.419 24.4013 100.419 21.8923C100.377 19.4251 102.242 17.418 104.743 17.418ZM105.209 24.0249C106.481 24.0249 107.499 23.0632 107.499 21.8505C107.499 20.6378 106.481 19.676 105.209 19.676C103.98 19.676 103.005 20.6378 103.005 21.8505C102.963 23.105 103.938 24.0249 105.209 24.0249Z" fill="black"/>
<path d="M110.593 17.5852H113.179V18.7143C113.434 17.9616 114.451 17.418 115.765 17.418C118.266 17.418 120.089 19.3833 120.089 21.8923C120.089 24.3595 118.224 26.3666 115.765 26.3666C114.409 26.3666 113.391 25.823 113.179 25.0703V29.5029H110.593V17.5852ZM115.299 24.0249C116.528 24.0249 117.503 23.0632 117.503 21.8505C117.503 20.6378 116.528 19.676 115.299 19.676C114.027 19.676 113.01 20.6378 113.01 21.8505C113.01 23.105 114.027 24.0249 115.299 24.0249Z" fill="black"/>
</g>
<defs>
<clipPath id="clip0_41_548">
<rect width="120" height="40" fill="white"/>
</clipPath>
</defs>
</svg>
