<svg width="827" height="829" viewBox="0 0 827 829" fill="none" xmlns="http://www.w3.org/2000/svg">
<path fill-rule="evenodd" clip-rule="evenodd" d="M5.20841 355.962C37.4922 129.94 246.585 -27.1249 472.211 5.21556C697.896 37.556 854.626 247.016 822.342 473.038C790.058 699.06 580.965 856.125 355.34 823.784C129.714 791.504 -27.0753 581.984 5.20841 355.962ZM618.84 670.152C683.889 617.817 726.092 544.042 737.935 460.933H737.875C750.26 374.21 728.196 287.788 675.712 217.687C623.229 147.586 546.638 102.177 460.067 89.7705C424.296 84.6514 388.585 85.4945 354.077 91.8783L353.777 92.4806C330.631 117.112 311.634 144.996 297.265 175.289C248.148 199.62 207.087 238.765 180.635 287.848C181.356 277.911 182.378 267.914 183.821 257.856C188.691 223.83 198.49 188.96 210.935 158.366V156.981C144.624 209.376 101.579 283.934 89.555 368.007C77.1705 454.79 99.2341 541.151 151.718 611.253C204.201 681.354 280.793 726.823 367.364 739.229C404.156 744.529 440.889 743.505 476.299 736.519C499.444 711.887 518.442 684.003 532.81 653.711C581.927 629.38 622.988 590.234 649.441 541.151C648.719 551.089 647.697 561.086 646.254 571.143C641.385 605.411 631.345 639.438 618.84 670.152ZM189.532 382.4C207.207 258.338 322.034 172.097 445.879 189.863C569.723 207.569 655.813 322.598 638.078 446.66C620.343 570.722 505.576 656.963 381.732 639.197C257.887 621.491 171.797 506.463 189.532 382.4ZM515.015 549.824C551.086 522.723 574.472 483.156 580.845 438.469C587.218 393.723 575.855 349.217 548.802 313.082C521.748 276.948 482.25 253.52 437.642 247.137C393.034 240.753 348.606 252.135 312.535 279.236C276.464 306.337 253.078 345.905 246.705 390.591C240.333 435.338 251.695 479.843 278.748 515.978C305.802 552.113 345.3 575.54 389.908 581.924C434.516 588.307 478.944 576.925 515.015 549.824Z" fill="white"/>
</svg>
